<?xml version="1.0" encoding="UTF-8" standalone="no"?>
<!-- Created with Inkscape (http://www.inkscape.org/) -->

<svg
   width="576"
   height="576"
   viewBox="0 0 152.4 152.4"
   version="1.1"
   id="svg5"
   inkscape:version="1.2.1 (9c6d41e410, 2022-07-14)"
   sodipodi:docname="icono_lampara.svg"
   xml:space="preserve"
   xmlns:inkscape="http://www.inkscape.org/namespaces/inkscape"
   xmlns:sodipodi="http://sodipodi.sourceforge.net/DTD/sodipodi-0.dtd"
   xmlns="http://www.w3.org/2000/svg"
   xmlns:svg="http://www.w3.org/2000/svg"><sodipodi:namedview
     id="namedview7"
     pagecolor="#ffffff"
     bordercolor="#000000"
     borderopacity="0.25"
     inkscape:showpageshadow="2"
     inkscape:pageopacity="0.0"
     inkscape:pagecheckerboard="0"
     inkscape:deskcolor="#d1d1d1"
     inkscape:document-units="mm"
     showgrid="false"
     inkscape:zoom="0.81447524"
     inkscape:cx="80.419879"
     inkscape:cy="294.05437"
     inkscape:window-width="1440"
     inkscape:window-height="882"
     inkscape:window-x="-8"
     inkscape:window-y="-8"
     inkscape:window-maximized="1"
     inkscape:current-layer="layer1" /><defs
     id="defs2" /><g
     inkscape:label="Layer 1"
     inkscape:groupmode="layer"
     id="layer1"><g
       id="g188"
       transform="matrix(1.1601209,0,0,1.1601209,-12.124476,-12.369632)"><path
         style="fill:#fde8a5;stroke-width:0.264583"
         d="m 64.95201,81.425521 c -1.181401,-1.36888 -2.30573,-3.528243 -2.93465,-5.636228 -0.552849,-1.85302 -0.612986,-5.731608 -0.116596,-7.519794 1.226867,-4.419621 4.788357,-8.398105 9.006114,-10.060591 3.564832,-1.405125 8.227494,-1.185087 11.821935,0.557898 3.616219,1.753547 6.793187,5.740342 7.777702,9.760278 1.047332,4.276441 -0.216215,9.605078 -3.058525,12.898437 L 86.477514,82.55 h -4.080422 -4.080425 v -2.193079 -2.193078 l 1.383029,-0.930709 c 3.882417,-2.612673 3.788469,-8.23075 -0.178651,-10.68343 C 78.374616,65.84092 77.993211,65.748959 76.2,65.748959 c -1.793211,0 -2.174616,0.09196 -3.321045,0.800745 -1.856827,1.147985 -2.855703,2.865028 -2.978993,5.120802 -0.129744,2.373807 0.796832,4.214365 2.800342,5.562628 l 1.383029,0.930709 V 80.356921 82.55 h -4.080425 -4.080422 z m 10.577345,-7.59641 C 73.513889,73.021394 74.042085,70.02639 76.2,70.02639 c 1.072084,0 1.940277,0.868193 1.940277,1.940277 0,1.325888 -1.42081,2.33939 -2.610922,1.862444 z M 62.573959,58.472918 c 0.26339,-0.291042 0.538422,-0.529167 0.611182,-0.529167 0.07276,0 -0.08321,0.238125 -0.346599,0.529167 -0.26339,0.291041 -0.538421,0.529166 -0.611182,0.529166 -0.07276,0 0.08321,-0.238125 0.346599,-0.529166 z"
         id="path202" /><path
         style="fill:#fb866d;stroke-width:0.264583"
         d="m 50.129357,124.62911 c -2.015466,-0.80772 -1.487271,-3.80272 0.670644,-3.80272 1.072084,0 1.940277,0.86819 1.940277,1.94027 0,1.32589 -1.42081,2.33939 -2.610921,1.86245 z m 42.333331,0 c -2.015466,-0.80772 -1.487271,-3.80272 0.670644,-3.80272 1.072084,0 1.940277,0.86819 1.940277,1.94027 0,1.32589 -1.420809,2.33939 -2.610921,1.86245 z m -59.266663,-8.46667 c -2.015468,-0.80771 -1.487272,-3.80272 0.670644,-3.80272 1.072083,0 1.940277,0.86819 1.940277,1.94028 0,1.32589 -1.42081,2.33939 -2.610921,1.86244 z m 84.666665,0 c -2.01547,-0.80771 -1.48727,-3.80272 0.67064,-3.80272 1.07208,0 1.94028,0.86819 1.94028,1.94028 0,1.32589 -1.42081,2.33939 -2.61092,1.86244 z m -42.333335,-4.23333 c -2.015466,-0.80772 -1.48727,-3.80272 0.670645,-3.80272 1.072084,0 1.940277,0.86819 1.940277,1.94027 0,1.32589 -1.42081,2.3394 -2.610922,1.86245 z m -16.933332,-4.23333 c -2.015466,-0.80772 -1.487271,-3.80272 0.670644,-3.80272 1.072084,0 1.940277,0.86819 1.940277,1.94027 0,1.32589 -1.420809,2.33939 -2.610921,1.86245 z m 33.866665,0 c -2.015466,-0.80772 -1.487271,-3.80272 0.670644,-3.80272 1.072084,0 1.940277,0.86819 1.940277,1.94027 0,1.32589 -1.420809,2.33939 -2.610921,1.86245 z M 41.66269,90.762444 c -2.015466,-0.807718 -1.48727,-3.802721 0.670645,-3.802721 1.072084,0 1.940277,0.868193 1.940277,1.940276 0,1.325888 -1.42081,2.339391 -2.610922,1.862445 z m 67.73333,0 c -2.01547,-0.807718 -1.48727,-3.802721 0.67065,-3.802721 1.07208,0 1.94027,0.868193 1.94027,1.940276 0,1.325888 -1.42081,2.339391 -2.61092,1.862445 z M 20.496025,80.179111 c -2.015467,-0.807717 -1.487271,-3.802721 0.670644,-3.802721 1.072083,0 1.940278,0.868193 1.940278,1.940277 0,1.325887 -1.42081,2.33939 -2.610922,1.862444 z m 110.066665,0 c -2.01547,-0.807717 -1.48727,-3.802721 0.67064,-3.802721 1.07208,0 1.94028,0.868193 1.94028,1.940277 0,1.325887 -1.42081,2.33939 -2.61092,1.862444 z M 50.129357,61.129112 c -2.015466,-0.807717 -1.487271,-3.802721 0.670644,-3.802721 2.300452,0 2.636383,3.28228 0.396875,3.877765 -0.291041,0.07739 -0.771424,0.04362 -1.067519,-0.07504 z m 50.799993,0 c -2.015462,-0.807717 -1.487266,-3.802721 0.67065,-3.802721 1.07208,0 1.94028,0.868193 1.94028,1.940276 0,1.325888 -1.42081,2.339391 -2.61093,1.862445 z M 60.712689,44.195779 c -2.015466,-0.807717 -1.48727,-3.802721 0.670645,-3.802721 1.072084,0 1.940277,0.868193 1.940277,1.940277 0,1.325888 -1.42081,2.33939 -2.610922,1.862444 z M 33.196025,35.729113 c -2.015468,-0.807718 -1.487272,-3.802722 0.670644,-3.802722 1.072083,0 1.940277,0.868195 1.940277,1.940278 0,1.325888 -1.42081,2.33939 -2.610921,1.862444 z m 59.266663,0 c -2.015466,-0.807718 -1.487271,-3.802722 0.670644,-3.802722 1.072084,0 1.940277,0.868195 1.940277,1.940278 0,1.325888 -1.420809,2.33939 -2.610921,1.862444 z m 25.400002,0 c -2.01547,-0.807718 -1.48727,-3.802722 0.67064,-3.802722 1.07208,0 1.94028,0.868195 1.94028,1.940278 0,1.325888 -1.42081,2.33939 -2.61092,1.862444 z M 109.39602,18.79578 c -2.01547,-0.807717 -1.48727,-3.802721 0.67065,-3.802721 1.07208,0 1.94027,0.868195 1.94027,1.940277 0,1.325888 -1.42081,2.339391 -2.61092,1.862444 z"
         id="path200" /><path
         style="fill:#989fa8;stroke-width:0.264583"
         d="m 46.144655,127.19843 -0.504028,-0.59531 0.595312,0.50403 c 0.559446,0.47366 0.715761,0.6866 0.504029,0.6866 -0.05021,0 -0.318098,-0.26789 -0.595313,-0.59532 z m 9.020971,0.0661 c 0.26339,-0.29104 0.538422,-0.52917 0.611182,-0.52917 0.07276,0 -0.08321,0.23813 -0.346599,0.52917 -0.26339,0.29104 -0.538421,0.52917 -0.611182,0.52917 -0.07276,0 0.08321,-0.23813 0.346599,-0.52917 z m 33.31236,-0.0661 -0.504028,-0.59531 0.595312,0.50403 c 0.559446,0.47366 0.715762,0.6866 0.504029,0.6866 -0.05021,0 -0.318098,-0.26789 -0.595313,-0.59532 z m 9.020971,0.0661 c 0.26339,-0.29104 0.538422,-0.52917 0.611182,-0.52917 0.07276,0 -0.08321,0.23813 -0.346598,0.52917 -0.26339,0.29104 -0.538422,0.52917 -0.611183,0.52917 -0.07276,0 0.08321,-0.23813 0.346599,-0.52917 z M 46.169793,118.2687 c 0.26339,-0.29104 0.538422,-0.52917 0.611182,-0.52917 0.07276,0 -0.08321,0.23813 -0.346599,0.52917 -0.26339,0.29104 -0.538421,0.52916 -0.611182,0.52916 -0.07276,0 0.08321,-0.23812 0.346599,-0.52916 z m -7.962638,-8.53281 -0.504028,-0.59532 0.595312,0.50403 c 0.559446,0.47366 0.715762,0.6866 0.504029,0.6866 -0.05021,0 -0.318098,-0.26789 -0.595313,-0.59531 z m 75.695965,0.0661 c 0.26339,-0.29104 0.53842,-0.52916 0.61119,-0.52916 0.0728,0 -0.0832,0.23812 -0.3466,0.52916 -0.26339,0.29104 -0.53843,0.52917 -0.61119,0.52917 -0.0728,0 0.0832,-0.23813 0.3466,-0.52917 z m -59.266661,-8.46666 c 0.26339,-0.29105 0.538422,-0.52917 0.611183,-0.52917 0.07276,0 -0.08321,0.23812 -0.346599,0.52917 -0.26339,0.29104 -0.538422,0.52916 -0.611182,0.52916 -0.07276,0 0.08321,-0.23812 0.346598,-0.52916 z m 8.970695,-0.0661 -0.504028,-0.59531 0.595312,0.50403 c 0.559446,0.47366 0.715761,0.68659 0.504029,0.68659 -0.05021,0 -0.318098,-0.26789 -0.595313,-0.59531 z m 24.89597,0.0661 c 0.26339,-0.29105 0.538422,-0.52917 0.611183,-0.52917 0.07276,0 -0.08321,0.23812 -0.346599,0.52917 -0.26339,0.29104 -0.538422,0.52916 -0.611182,0.52916 -0.07276,0 0.08321,-0.23812 0.346598,-0.52916 z m 8.970695,-0.0661 -0.504028,-0.59531 0.595312,0.50403 c 0.327422,0.27721 0.595313,0.5451 0.595313,0.59531 0,0.21173 -0.212934,0.0554 -0.686597,-0.50403 z m -32.279165,-3.704167 -0.504028,-0.595312 0.595312,0.504028 c 0.559446,0.473663 0.715761,0.686597 0.504029,0.686597 -0.05021,0 -0.318098,-0.267891 -0.595313,-0.595313 z m 21.72097,0.06615 c 0.263391,-0.291042 0.538422,-0.529167 0.611183,-0.529167 0.07276,0 -0.08321,0.238125 -0.346599,0.529167 -0.26339,0.291042 -0.538422,0.529167 -0.611182,0.529167 -0.07276,0 0.08321,-0.238125 0.346598,-0.529167 z M 68.506732,94.476601 67.733334,93.703205 V 90.243268 86.783333 H 76.2 84.666666 v 3.459935 3.459937 l -0.773398,0.773396 -0.773396,0.773398 H 76.2 69.280128 Z M 46.69896,93.397916 c 0.26339,-0.291042 0.538422,-0.529167 0.611182,-0.529167 0.07276,0 -0.08321,0.238125 -0.346599,0.529167 -0.26339,0.291041 -0.538422,0.529166 -0.611182,0.529166 -0.07276,0 0.08321,-0.238125 0.346599,-0.529166 z m 58.71236,-0.06615 -0.50403,-0.595312 0.59531,0.504028 c 0.32742,0.277215 0.59532,0.545105 0.59532,0.595313 0,0.211732 -0.21294,0.05542 -0.6866,-0.504029 z m -42.862499,-7.9375 -0.504029,-0.595312 0.595313,0.504028 c 0.559445,0.473663 0.715761,0.686597 0.504028,0.686597 -0.05021,0 -0.318098,-0.267891 -0.595312,-0.595313 z m 27.144928,-0.06615 c 0.341776,-0.363803 0.68094,-0.661459 0.7537,-0.661459 0.07276,0 -0.147341,0.297656 -0.489116,0.661459 -0.341776,0.363802 -0.68094,0.661458 -0.7537,0.661458 -0.07276,0 0.147341,-0.297656 0.489116,-0.661458 z m -43.019927,-0.992188 -0.504029,-0.595312 0.595313,0.504028 c 0.559445,0.473663 0.715761,0.686597 0.504028,0.686597 -0.05021,0 -0.318098,-0.267891 -0.595312,-0.595313 z m 58.762638,0.06615 c 0.26339,-0.291042 0.53842,-0.529167 0.61118,-0.529167 0.0728,0 -0.0832,0.238125 -0.3466,0.529167 -0.26339,0.291042 -0.53842,0.529167 -0.61118,0.529167 -0.0728,0 0.0832,-0.238125 0.3466,-0.529167 z M 71.40375,76.266146 c -0.329107,-0.419645 -0.319749,-0.429004 0.0999,-0.0999 0.254662,0.19972 0.463021,0.40808 0.463021,0.463021 0,0.217762 -0.217273,0.0776 -0.562917,-0.363125 z m 9.029583,0.363125 c 0,-0.05494 0.208359,-0.263301 0.463021,-0.463021 0.419645,-0.329108 0.429003,-0.319749 0.0999,0.0999 -0.345644,0.440729 -0.562917,0.580887 -0.562917,0.363125 z m 14.572972,-2.17111 c 0.0127,-0.308227 0.07539,-0.37092 0.15985,-0.159854 0.07643,0.190995 0.06703,0.419198 -0.02088,0.507119 -0.08792,0.08792 -0.150453,-0.06835 -0.138965,-0.347265 z M 25.507156,73.752604 25.003128,73.157292 25.59844,73.66132 c 0.559447,0.473663 0.715762,0.686597 0.504028,0.686597 -0.05021,0 -0.318097,-0.267891 -0.595312,-0.595313 z m 101.095964,0.06615 c 0.26339,-0.291042 0.53842,-0.529167 0.61118,-0.529167 0.0728,0 -0.0832,0.238125 -0.34659,0.529167 -0.26339,0.291042 -0.53843,0.529167 -0.61119,0.529167 -0.0728,0 0.0832,-0.238125 0.3466,-0.529167 z M 95.006305,69.695661 c 0.0127,-0.308226 0.07539,-0.370919 0.15985,-0.159853 0.07643,0.190994 0.06703,0.419197 -0.02088,0.507119 -0.08792,0.08792 -0.150453,-0.06835 -0.138965,-0.347266 z m -5.461492,-11.288889 -0.777105,-0.859896 0.859896,0.777105 c 0.801544,0.724371 0.981511,0.942686 0.777105,0.942686 -0.04554,0 -0.432488,-0.386953 -0.859896,-0.859895 z m -34.404325,-3.704167 -0.504029,-0.595312 0.595313,0.504028 c 0.559445,0.473663 0.715761,0.686597 0.504028,0.686597 -0.05021,0 -0.318097,-0.267891 -0.595312,-0.595313 z m 41.829303,0.06615 c 0.26339,-0.291042 0.538421,-0.529167 0.611182,-0.529167 0.07276,0 -0.08321,0.238125 -0.346599,0.529167 -0.26339,0.291042 -0.538422,0.529167 -0.611182,0.529167 -0.07276,0 0.08321,-0.238125 0.346599,-0.529167 z M 73.504557,53.000512 c 0.190995,-0.07643 0.419198,-0.06703 0.507119,0.02087 0.08792,0.08792 -0.06835,0.150453 -0.347265,0.138965 -0.308227,-0.0127 -0.37092,-0.07539 -0.159854,-0.159851 z m 5.027084,0 c 0.190994,-0.07643 0.4192,-0.06703 0.507118,0.02087 0.08792,0.08792 -0.06835,0.150453 -0.347265,0.138965 -0.308227,-0.0127 -0.37092,-0.07539 -0.159853,-0.159851 z m -21.803653,-6.235406 -0.504029,-0.595313 0.595313,0.504029 c 0.559445,0.473662 0.715761,0.686596 0.504028,0.686596 -0.05021,0 -0.318098,-0.267891 -0.595312,-0.595312 z m 31.749998,-8.466667 -0.504028,-0.595312 0.595312,0.504028 c 0.559446,0.473663 0.715762,0.686597 0.504029,0.686597 -0.05021,0 -0.318098,-0.267891 -0.595313,-0.595313 z m -31.72486,-0.46302 c 0.26339,-0.291042 0.538422,-0.529167 0.611182,-0.529167 0.07276,0 -0.08321,0.238125 -0.346599,0.529167 -0.26339,0.291041 -0.538421,0.529166 -0.611182,0.529166 -0.07276,0 0.08321,-0.238125 0.346599,-0.529166 z m 31.749998,-8.466667 c 0.26339,-0.291041 0.538422,-0.529166 0.611183,-0.529166 0.07276,0 -0.08321,0.238125 -0.346599,0.529166 -0.26339,0.291042 -0.538422,0.529167 -0.611182,0.529167 -0.07276,0 0.08321,-0.238125 0.346598,-0.529167 z m 8.970695,-0.06615 -0.504028,-0.595312 0.595312,0.504028 c 0.559446,0.473662 0.715761,0.686597 0.504029,0.686597 -0.05021,0 -0.318098,-0.267891 -0.595313,-0.595313 z m 16.429301,0.06615 c 0.26339,-0.291041 0.53842,-0.529166 0.61119,-0.529166 0.0728,0 -0.0832,0.238125 -0.3466,0.529166 -0.26339,0.291042 -0.53843,0.529167 -0.61119,0.529167 -0.0728,0 0.0832,-0.238125 0.3466,-0.529167 z m 0.52917,-7.937499 c 0.26339,-0.291042 0.53842,-0.529167 0.61118,-0.529167 0.0728,0 -0.0832,0.238125 -0.3466,0.529167 -0.26339,0.291041 -0.53842,0.529166 -0.61118,0.529166 -0.0728,0 0.0832,-0.238125 0.3466,-0.529166 z m -0.0251,-9.061979 -0.50402,-0.595312 0.59531,0.504028 c 0.32742,0.277215 0.59531,0.545105 0.59531,0.595312 0,0.211734 -0.21293,0.05542 -0.6866,-0.504028 z"
         id="path198" /><path
         style="fill:#c26453;stroke-width:0.264583"
         d="m 49.178751,124.15573 c -0.329107,-0.41965 -0.319749,-0.42901 0.0999,-0.0999 0.44073,0.34564 0.580888,0.56292 0.363125,0.56292 -0.05494,0 -0.2633,-0.20836 -0.463021,-0.46302 z m 2.679584,0.36312 c 0,-0.0549 0.208359,-0.2633 0.46302,-0.46302 0.419645,-0.32911 0.429004,-0.31975 0.0999,0.0999 -0.345643,0.44073 -0.562916,0.58088 -0.562916,0.36312 z m 39.653747,-0.36312 c -0.329107,-0.41965 -0.319749,-0.42901 0.0999,-0.0999 0.44073,0.34564 0.580888,0.56292 0.363125,0.56292 -0.05494,0 -0.2633,-0.20836 -0.463021,-0.46302 z m 2.679584,0.36312 c 0,-0.0549 0.208359,-0.2633 0.463021,-0.46302 0.419645,-0.32911 0.429003,-0.31975 0.0999,0.0999 -0.345644,0.44073 -0.562917,0.58088 -0.562917,0.36312 z m -45.243748,-2.91041 c 0,-0.055 0.208359,-0.26331 0.463021,-0.46303 0.419645,-0.3291 0.429003,-0.31974 0.0999,0.0999 -0.345644,0.44073 -0.562917,0.58089 -0.562917,0.36313 z m 3.14125,-0.36313 c -0.329108,-0.41964 -0.319749,-0.429 0.0999,-0.0999 0.254661,0.19972 0.46302,0.40808 0.46302,0.46303 0,0.21776 -0.217273,0.0776 -0.562916,-0.36313 z m 39.192081,0.36313 c 0,-0.055 0.20836,-0.26331 0.463021,-0.46303 0.419645,-0.3291 0.429003,-0.31974 0.0999,0.0999 -0.345644,0.44073 -0.562917,0.58089 -0.562917,0.36313 z m 3.14125,-0.36313 c -0.329107,-0.41964 -0.319749,-0.429 0.0999,-0.0999 0.44073,0.34565 0.580887,0.56292 0.363125,0.56292 -0.05494,0 -0.2633,-0.20836 -0.463021,-0.46302 z M 32.24542,115.68906 c -0.329108,-0.41964 -0.319749,-0.429 0.09989,-0.0999 0.254661,0.19973 0.46302,0.40808 0.46302,0.46303 0,0.21776 -0.217272,0.0776 -0.562915,-0.36313 z m 2.679582,0.36313 c 0,-0.0549 0.208359,-0.2633 0.463021,-0.46303 0.419645,-0.3291 0.429003,-0.31974 0.0999,0.0999 -0.345644,0.44073 -0.562917,0.58089 -0.562917,0.36313 z m 81.987078,-0.36313 c -0.32911,-0.41964 -0.31975,-0.429 0.0999,-0.0999 0.25466,0.19973 0.46302,0.40808 0.46302,0.46303 0,0.21776 -0.21728,0.0776 -0.56292,-0.36313 z m 2.67958,0.36313 c 0,-0.0549 0.20836,-0.2633 0.46303,-0.46303 0.41964,-0.3291 0.429,-0.31974 0.0999,0.0999 -0.34564,0.44073 -0.56292,0.58089 -0.56292,0.36313 z m -87.577074,-2.91042 c 0,-0.0549 0.208359,-0.2633 0.46302,-0.46302 0.419644,-0.32911 0.429003,-0.31975 0.09989,0.0999 -0.345643,0.44073 -0.562915,0.58089 -0.562915,0.36313 z m 3.141249,-0.36313 c -0.329106,-0.41964 -0.319748,-0.429 0.0999,-0.0999 0.254662,0.19972 0.463021,0.40808 0.463021,0.46302 0,0.21776 -0.217273,0.0776 -0.562917,-0.36313 z m 81.525415,0.36313 c 0,-0.0549 0.20836,-0.2633 0.46302,-0.46302 0.41964,-0.32911 0.429,-0.31975 0.0999,0.0999 -0.34564,0.44073 -0.56291,0.58089 -0.56291,0.36313 z m 3.14125,-0.36313 c -0.32911,-0.41964 -0.31975,-0.429 0.0999,-0.0999 0.44073,0.34564 0.58089,0.56291 0.36313,0.56291 -0.0549,0 -0.2633,-0.20835 -0.46302,-0.46302 z m -45.24375,-1.32291 c -0.329107,-0.41965 -0.319749,-0.42901 0.0999,-0.0999 0.254661,0.19972 0.463021,0.40808 0.463021,0.46302 0,0.21776 -0.217273,0.0776 -0.562917,-0.36312 z m 2.679583,0.36312 c 0,-0.0549 0.20836,-0.2633 0.463021,-0.46302 0.419645,-0.32911 0.429003,-0.31975 0.0999,0.0999 -0.345644,0.44073 -0.562917,0.58088 -0.562917,0.36312 z m -2.910416,-2.91041 c 0,-0.055 0.208359,-0.2633 0.463021,-0.46303 0.419645,-0.3291 0.429003,-0.31974 0.0999,0.0999 -0.345644,0.44073 -0.562917,0.58089 -0.562917,0.36313 z m 3.141249,-0.36313 c -0.329107,-0.41964 -0.319749,-0.429 0.0999,-0.0999 0.44073,0.34565 0.580888,0.56292 0.363125,0.56292 -0.05494,0 -0.2633,-0.20836 -0.463021,-0.46302 z m -19.843749,-1.32292 c -0.329107,-0.41964 -0.319749,-0.429 0.0999,-0.0999 0.254662,0.19972 0.463021,0.40808 0.463021,0.46302 0,0.21776 -0.217273,0.0776 -0.562917,-0.36313 z m 2.679584,0.36313 c 0,-0.0549 0.208359,-0.2633 0.463021,-0.46302 0.419645,-0.32911 0.429003,-0.31975 0.0999,0.0999 -0.345644,0.44073 -0.562917,0.58089 -0.562917,0.36313 z m 31.187081,-0.36313 c -0.329107,-0.41964 -0.319749,-0.429 0.0999,-0.0999 0.254662,0.19972 0.463021,0.40808 0.463021,0.46302 0,0.21776 -0.217273,0.0776 -0.562917,-0.36313 z m 2.679584,0.36313 c 0,-0.0549 0.208359,-0.2633 0.463021,-0.46302 0.419645,-0.32911 0.429003,-0.31975 0.0999,0.0999 -0.345644,0.44073 -0.562917,0.58089 -0.562917,0.36313 z M 57.414584,104.6751 c 0,-0.0549 0.20836,-0.2633 0.463021,-0.46302 0.419645,-0.32911 0.429003,-0.31975 0.0999,0.0999 -0.345644,0.44073 -0.562917,0.58089 -0.562917,0.36312 z m 3.14125,-0.36312 c -0.329107,-0.41965 -0.319749,-0.42901 0.0999,-0.0999 0.254661,0.19972 0.463021,0.40808 0.463021,0.46302 0,0.21777 -0.217273,0.0776 -0.562917,-0.36312 z m 30.725415,0.36312 c 0,-0.0549 0.20836,-0.2633 0.463021,-0.46302 0.419645,-0.32911 0.429003,-0.31975 0.0999,0.0999 -0.345644,0.44073 -0.562917,0.58089 -0.562917,0.36312 z m 3.14125,-0.36312 c -0.329107,-0.41965 -0.319749,-0.42901 0.0999,-0.0999 0.44073,0.34565 0.580887,0.56292 0.363125,0.56292 -0.05494,0 -0.2633,-0.20836 -0.463021,-0.46302 z M 40.712085,90.289062 c -0.329107,-0.419645 -0.319749,-0.429004 0.0999,-0.0999 0.254661,0.19972 0.463021,0.40808 0.463021,0.463021 0,0.217762 -0.217273,0.0776 -0.562917,-0.363125 z m 2.679583,0.363125 c 0,-0.05494 0.20836,-0.263301 0.463021,-0.463021 0.419645,-0.329108 0.429003,-0.319749 0.0999,0.0999 -0.345644,0.440729 -0.562917,0.580887 -0.562917,0.363125 z m 65.053742,-0.363125 c -0.3291,-0.419645 -0.31974,-0.429004 0.0999,-0.0999 0.44073,0.345643 0.58089,0.562917 0.36313,0.562917 -0.055,0 -0.2633,-0.20836 -0.46303,-0.463021 z m 2.67959,0.363125 c 0,-0.05494 0.20836,-0.263301 0.46302,-0.463021 0.41964,-0.329108 0.429,-0.319749 0.0999,0.0999 -0.34565,0.440729 -0.56292,0.580887 -0.56292,0.363125 z M 40.481252,87.74177 c 0,-0.05494 0.208359,-0.2633 0.463021,-0.463021 0.419645,-0.329107 0.429003,-0.319749 0.0999,0.0999 -0.345644,0.44073 -0.562917,0.580888 -0.562917,0.363125 z m 3.141249,-0.363125 c -0.329107,-0.419645 -0.319749,-0.429003 0.0999,-0.0999 0.254662,0.199721 0.463021,0.40808 0.463021,0.463021 0,0.217763 -0.217273,0.0776 -0.562917,-0.363125 z m 64.592079,0.363125 c 0,-0.05494 0.20836,-0.2633 0.46302,-0.463021 0.41965,-0.329107 0.42901,-0.319749 0.0999,0.0999 -0.34565,0.44073 -0.56292,0.580888 -0.56292,0.363125 z m 3.14125,-0.363125 c -0.32911,-0.419645 -0.31975,-0.429003 0.0999,-0.0999 0.44073,0.345644 0.58088,0.562917 0.36312,0.562917 -0.0549,0 -0.2633,-0.208359 -0.46302,-0.463021 z M 19.545421,79.705729 c -0.329108,-0.419645 -0.31975,-0.429003 0.09989,-0.0999 0.254662,0.199721 0.463021,0.40808 0.463021,0.463021 0,0.217762 -0.217272,0.0776 -0.562915,-0.363125 z m 2.679582,0.363125 c 0,-0.05494 0.208359,-0.2633 0.46302,-0.463021 0.419644,-0.329107 0.429003,-0.319749 0.0999,0.0999 -0.345643,0.44073 -0.562915,0.580887 -0.562915,0.363125 z M 129.61208,79.705729 c -0.32911,-0.419645 -0.31975,-0.429003 0.0999,-0.0999 0.25466,0.199721 0.46302,0.40808 0.46302,0.463021 0,0.217762 -0.21728,0.0776 -0.56292,-0.363125 z m 2.67958,0.363125 c 0,-0.05494 0.20836,-0.2633 0.46302,-0.463021 0.41965,-0.329107 0.42901,-0.319749 0.0999,0.0999 -0.34564,0.44073 -0.56292,0.580887 -0.56292,0.363125 z M 19.314586,77.158437 c 0,-0.05494 0.208359,-0.2633 0.463021,-0.463021 0.419644,-0.329107 0.429002,-0.319749 0.0999,0.0999 -0.345644,0.44073 -0.562916,0.580888 -0.562916,0.363125 z m 3.141251,-0.363125 c -0.329107,-0.419645 -0.319749,-0.429003 0.0999,-0.0999 0.254661,0.199721 0.463021,0.40808 0.463021,0.463021 0,0.217763 -0.217273,0.0776 -0.562916,-0.363125 z m 106.925413,0.363125 c 0,-0.05494 0.20836,-0.2633 0.46302,-0.463021 0.41964,-0.329107 0.429,-0.319749 0.0999,0.0999 -0.34564,0.44073 -0.56291,0.580888 -0.56291,0.363125 z m 3.14125,-0.363125 c -0.32911,-0.419645 -0.31975,-0.429003 0.0999,-0.0999 0.44073,0.345644 0.58089,0.562917 0.36313,0.562917 -0.0549,0 -0.2633,-0.208359 -0.46302,-0.463021 z M 74.57875,73.355729 c -0.329107,-0.419645 -0.319749,-0.429003 0.0999,-0.0999 0.254661,0.199721 0.463021,0.40808 0.463021,0.463021 0,0.217763 -0.217273,0.07761 -0.562917,-0.363125 z m 2.679583,0.363125 c 0,-0.05494 0.20836,-0.2633 0.463021,-0.463021 0.419645,-0.329107 0.429003,-0.319749 0.0999,0.0999 -0.345644,0.44073 -0.562917,0.580888 -0.562917,0.363125 z m -2.910416,-2.910416 c 0,-0.05494 0.208359,-0.263301 0.463021,-0.463021 0.419645,-0.329108 0.429003,-0.319749 0.0999,0.0999 -0.345644,0.440729 -0.562917,0.580887 -0.562917,0.363125 z m 3.141249,-0.363125 c -0.329107,-0.419645 -0.319749,-0.429004 0.0999,-0.0999 0.44073,0.345643 0.580888,0.562917 0.363125,0.562917 -0.05494,0 -0.2633,-0.20836 -0.463021,-0.463021 z M 65.352084,61.812605 c 0,-0.05494 0.208359,-0.2633 0.463021,-0.463021 0.419645,-0.329107 0.429003,-0.319749 0.0999,0.0999 -0.345644,0.44073 -0.562917,0.580887 -0.562917,0.363125 z M 49.178751,60.65573 c -0.329107,-0.419645 -0.319749,-0.429003 0.0999,-0.0999 0.254662,0.199721 0.463021,0.40808 0.463021,0.463021 0,0.217762 -0.217273,0.0776 -0.562917,-0.363125 z m 2.679584,0.363125 c 0,-0.05494 0.208359,-0.2633 0.46302,-0.463021 0.419645,-0.329107 0.429004,-0.319749 0.0999,0.0999 -0.345643,0.44073 -0.562916,0.580887 -0.562916,0.363125 z M 99.978749,60.65573 c -0.329108,-0.419645 -0.319749,-0.429003 0.09989,-0.0999 0.25467,0.199721 0.46303,0.40808 0.46303,0.463021 0,0.217762 -0.21728,0.0776 -0.562926,-0.363125 z m 2.679581,0.363125 c 0,-0.05494 0.20836,-0.2633 0.46302,-0.463021 0.41965,-0.329107 0.42901,-0.319749 0.0999,0.0999 -0.34564,0.44073 -0.56292,0.580887 -0.56292,0.363125 z M 48.947918,58.108438 c 0,-0.05494 0.208359,-0.2633 0.463021,-0.463021 0.419645,-0.329107 0.429003,-0.319749 0.0999,0.0999 -0.345644,0.44073 -0.562917,0.580888 -0.562917,0.363125 z m 3.14125,-0.363125 c -0.329108,-0.419645 -0.319749,-0.429003 0.0999,-0.0999 0.254661,0.199721 0.46302,0.40808 0.46302,0.463021 0,0.217763 -0.217273,0.0776 -0.562916,-0.363125 z m 47.658748,0.363125 c 0,-0.05494 0.208359,-0.2633 0.463024,-0.463021 0.41964,-0.329107 0.429,-0.319749 0.0999,0.0999 -0.345641,0.44073 -0.562914,0.580888 -0.562914,0.363125 z m 3.141254,-0.363125 c -0.32911,-0.419645 -0.31975,-0.429003 0.0999,-0.0999 0.44073,0.345644 0.58089,0.562917 0.36313,0.562917 -0.0549,0 -0.2633,-0.208359 -0.46302,-0.463021 z M 59.762084,43.722397 c -0.329107,-0.419645 -0.319749,-0.429003 0.0999,-0.0999 0.44073,0.345644 0.580887,0.562917 0.363125,0.562917 -0.05494,0 -0.2633,-0.208359 -0.463021,-0.463021 z m 2.679583,0.363125 c 0,-0.05494 0.20836,-0.2633 0.463021,-0.463021 0.419645,-0.329107 0.429003,-0.319749 0.0999,0.0999 -0.345643,0.44073 -0.562917,0.580888 -0.562917,0.363125 z m -2.910416,-2.910416 c 0,-0.05494 0.208359,-0.2633 0.463021,-0.463021 0.419645,-0.329107 0.429003,-0.319749 0.0999,0.0999 -0.345644,0.44073 -0.562917,0.580887 -0.562917,0.363125 z M 62.6725,40.811981 c -0.329107,-0.419645 -0.319749,-0.429003 0.0999,-0.0999 0.44073,0.345644 0.580888,0.562917 0.363125,0.562917 -0.05494,0 -0.2633,-0.20836 -0.463021,-0.463021 z m -30.42708,-5.55625 c -0.329108,-0.419644 -0.319749,-0.429002 0.09989,-0.0999 0.254661,0.199721 0.46302,0.40808 0.46302,0.463021 0,0.217763 -0.217272,0.0776 -0.562915,-0.363125 z m 2.679582,0.363125 c 0,-0.05494 0.208359,-0.2633 0.463021,-0.463021 0.419645,-0.329106 0.429003,-0.319748 0.0999,0.0999 -0.345644,0.44073 -0.562917,0.580888 -0.562917,0.363125 z m 56.58708,-0.363125 c -0.329107,-0.419644 -0.319749,-0.429002 0.0999,-0.0999 0.254662,0.199721 0.463021,0.40808 0.463021,0.463021 0,0.217763 -0.217273,0.0776 -0.562917,-0.363125 z m 2.679584,0.363125 c 0,-0.05494 0.208359,-0.2633 0.463021,-0.463021 0.419645,-0.329106 0.429003,-0.319748 0.0999,0.0999 -0.345644,0.44073 -0.562917,0.580888 -0.562917,0.363125 z m 22.720414,-0.363125 c -0.32911,-0.419644 -0.31975,-0.429002 0.0999,-0.0999 0.25466,0.199721 0.46302,0.40808 0.46302,0.463021 0,0.217763 -0.21728,0.0776 -0.56292,-0.363125 z m 2.67958,0.363125 c 0,-0.05494 0.20836,-0.2633 0.46303,-0.463021 0.41964,-0.329106 0.429,-0.319748 0.0999,0.0999 -0.34564,0.44073 -0.56292,0.580888 -0.56292,0.363125 z M 32.014586,32.708441 c 0,-0.05494 0.208359,-0.263302 0.46302,-0.463021 0.419644,-0.329108 0.429003,-0.319749 0.09989,0.09989 -0.345643,0.440729 -0.562915,0.580887 -0.562915,0.363126 z m 3.141249,-0.363126 c -0.329106,-0.419644 -0.319748,-0.429003 0.0999,-0.09989 0.254662,0.199719 0.463021,0.408078 0.463021,0.463021 0,0.217761 -0.217273,0.0776 -0.562917,-0.363126 z m 56.125414,0.363126 c 0,-0.05494 0.20836,-0.263302 0.463021,-0.463021 0.419645,-0.329108 0.429003,-0.319749 0.0999,0.09989 -0.345644,0.440729 -0.562917,0.580887 -0.562917,0.363126 z m 3.14125,-0.363126 c -0.329107,-0.419644 -0.319749,-0.429003 0.0999,-0.09989 0.44073,0.345643 0.580887,0.562915 0.363125,0.562915 -0.05494,0 -0.2633,-0.208359 -0.463021,-0.46302 z m 22.258751,0.363126 c 0,-0.05494 0.20836,-0.263302 0.46302,-0.463021 0.41964,-0.329108 0.429,-0.319749 0.0999,0.09989 -0.34564,0.440729 -0.56291,0.580887 -0.56291,0.363126 z m 3.14125,-0.363126 c -0.32911,-0.419644 -0.31975,-0.429003 0.0999,-0.09989 0.25467,0.199719 0.46302,0.408078 0.46302,0.463021 0,0.217761 -0.21727,0.0776 -0.56291,-0.363126 z M 108.44541,18.322399 c -0.3291,-0.419644 -0.31974,-0.429003 0.0999,-0.0999 0.44073,0.345643 0.58089,0.562915 0.36313,0.562915 -0.055,0 -0.2633,-0.208359 -0.46303,-0.46302 z m 2.67959,0.363126 c 0,-0.05494 0.20836,-0.263302 0.46302,-0.463021 0.41964,-0.329108 0.429,-0.319749 0.0999,0.0999 -0.34565,0.440729 -0.56292,0.580887 -0.56292,0.363126 z m -2.91042,-2.910417 c 0,-0.05494 0.20836,-0.263301 0.46302,-0.463021 0.41965,-0.329107 0.42901,-0.319749 0.0999,0.0999 -0.34565,0.440729 -0.56292,0.580887 -0.56292,0.363126 z m 3.14125,-0.363126 c -0.32911,-0.419644 -0.31975,-0.429002 0.0999,-0.0999 0.44073,0.345644 0.58088,0.562916 0.36312,0.562916 -0.0549,0 -0.2633,-0.208359 -0.46302,-0.463021 z"
         id="path196" /><path
         style="fill:#545452;stroke-width:0.264583"
         d="m 68.22875,94.522395 c -0.329107,-0.419645 -0.319749,-0.429003 0.0999,-0.0999 0.254662,0.199721 0.463021,0.40808 0.463021,0.463021 0,0.217762 -0.217273,0.07761 -0.562917,-0.363125 z m 15.379583,0.363125 c 0,-0.05494 0.208359,-0.2633 0.463021,-0.463021 0.419645,-0.329107 0.429003,-0.319749 0.0999,0.0999 -0.345644,0.44073 -0.562917,0.580887 -0.562917,0.363125 z M 65.318334,82.086979 c -0.329108,-0.419645 -0.319749,-0.429003 0.0999,-0.0999 0.440729,0.345644 0.580887,0.562917 0.363124,0.562917 -0.05494,0 -0.2633,-0.20836 -0.46302,-0.463021 z m 21.464999,0.09854 c 0,-0.05494 0.208359,-0.2633 0.463021,-0.463021 0.419645,-0.329107 0.429003,-0.319748 0.0999,0.0999 -0.345644,0.440729 -0.562917,0.580887 -0.562917,0.363124 z"
         id="path194" /><path
         style="fill:#383838;stroke-width:0.264583"
         d="m 38.627295,134.73906 -7.009584,-7.0776 7.077603,7.00958 c 6.577063,6.51386 7.196802,7.14562 7.009585,7.14562 -0.03741,0 -3.222331,-3.18492 -7.077604,-7.0776 z m 31.553434,1.12447 6.019271,-6.08396 6.019271,6.08396 6.01927,6.08395 -6.01927,-5.95018 -6.019271,-5.95018 -6.019271,5.95018 -6.01927,5.95018 z m 43.325521,-1.05832 c 3.85424,-3.85631 7.06724,-7.01146 7.14,-7.01146 0.0728,0 -3.02118,3.15515 -6.87542,7.01146 -3.85424,3.8563 -7.06724,7.01145 -7.14,7.01145 -0.0728,0 3.02117,-3.15515 6.87542,-7.01145 z m -71.968972,-2.97657 -5.686234,-5.75468 5.754687,5.68623 c 5.347131,5.28353 5.874059,5.82314 5.686234,5.82314 -0.03765,0 -2.627259,-2.58961 -5.754687,-5.75469 z m 26.725222,0.0661 c 3.126161,-3.1287 5.743459,-5.68854 5.816219,-5.68854 0.07276,0 -2.425475,2.55984 -5.551635,5.68854 -3.126161,3.1287 -5.743459,5.68854 -5.816219,5.68854 -0.07276,0 2.425475,-2.55984 5.551635,-5.68854 z m 15.608109,-0.0661 -5.686234,-5.75468 5.754687,5.68623 c 5.347131,5.28353 5.874059,5.82314 5.686234,5.82314 -0.03765,0 -2.627259,-2.58961 -5.754687,-5.75469 z m 26.725221,0.0661 c 3.12616,-3.1287 5.74346,-5.68854 5.81622,-5.68854 0.0728,0 -2.42547,2.55984 -5.55164,5.68854 -3.12616,3.1287 -5.74345,5.68854 -5.81621,5.68854 -0.0728,0 2.42547,-2.55984 5.55163,-5.68854 z m -51.858329,-14.2875 c 1.376698,-1.38245 2.562622,-2.51354 2.635382,-2.51354 0.07276,0 -0.9941,1.13109 -2.370799,2.51354 -1.376698,1.38245 -2.562622,2.51354 -2.635382,2.51354 -0.07276,0 0.9941,-1.13109 2.370799,-2.51354 z m -3.571875,-2.24896 c 1.010841,-1.01864 1.897422,-1.85208 1.970183,-1.85208 0.07276,0 -0.694759,0.83344 -1.7056,1.85208 -1.01084,1.01865 -1.897422,1.85208 -1.970182,1.85208 -0.07276,0 0.694758,-0.83343 1.705599,-1.85208 z m -38.763661,-4.96094 -5.95092,-6.01927 6.01927,5.95092 c 3.310599,3.27301 6.019271,5.98168 6.019271,6.01927 0,0.18769 -0.558021,-0.3578 -6.087621,-5.95092 z m 119.329285,0.0661 c 3.27179,-3.27422 6.00824,-5.95312 6.081,-5.95312 0.0728,0 -2.54463,2.6789 -5.81642,5.95312 -3.27179,3.27422 -6.00824,5.95312 -6.08101,5.95312 -0.0728,0 2.54463,-2.6789 5.81643,-5.95312 z m -116.419499,-2.97656 -4.627373,-4.69636 4.696354,4.62738 c 2.582995,2.54505 4.696354,4.65841 4.696354,4.69635 0,0.18855 -0.466171,-0.26412 -4.765335,-4.62737 z m 113.509079,0.0661 c 2.5435,-2.54661 4.68407,-4.6302 4.75683,-4.6302 0.0728,0 -1.94875,2.08359 -4.49225,4.6302 -2.54349,2.54662 -4.68407,4.63021 -4.75683,4.63021 -0.0728,0 1.94876,-2.08359 4.49225,-4.63021 z M 27.24841,87.378645 l -3.568199,-3.63802 3.638021,3.568199 c 3.379486,3.314626 3.757893,3.707842 3.568198,3.707842 -0.0384,0 -1.675511,-1.637109 -3.63802,-3.638021 z m 97.63125,0.132292 c 3.31462,-3.379486 3.70784,-3.757893 3.70784,-3.5682 0,0.0384 -1.63711,1.675514 -3.63802,3.638021 l -3.63802,3.5682 z M 16.536461,85.725 c 1.010841,-1.018646 1.897423,-1.852084 1.970183,-1.852084 0.07276,0 -0.694759,0.833438 -1.705599,1.852084 -1.010841,1.018645 -1.897423,1.852083 -1.970183,1.852083 -0.07276,0 0.694759,-0.833438 1.705599,-1.852083 z m 119.055399,-0.06615 -1.84499,-1.918229 1.91823,1.844987 c 1.78165,1.713624 2.03906,1.991471 1.84499,1.991471 -0.0403,0 -0.90349,-0.863203 -1.91823,-1.918229 z M 29.496532,83.80677 26.590627,80.830208 29.56719,83.736113 c 1.637109,1.598248 2.976562,2.937701 2.976562,2.976563 0,0.190801 -0.348102,-0.141158 -3.04722,-2.905906 z m 93.137838,0.06615 c 1.59577,-1.600729 2.96093,-2.910416 3.03369,-2.910416 0.0728,0 -1.17334,1.309687 -2.7691,2.910416 -1.59577,1.600729 -2.96093,2.910417 -3.03369,2.910417 -0.0728,0 1.17334,-1.309688 2.7691,-2.910417 z M 12.964586,83.476041 c 1.3767,-1.382448 2.562622,-2.513541 2.635382,-2.513541 0.07276,0 -0.994098,1.131093 -2.370798,2.513541 -1.3767,1.382448 -2.562622,2.513542 -2.635382,2.513542 -0.07276,0 0.994099,-1.131094 2.370798,-2.513542 z m 126.201014,-0.06615 -2.50831,-2.579687 2.57969,2.508316 c 1.41882,1.379575 2.57968,2.540434 2.57968,2.579688 0,0.191727 -0.32136,-0.112329 -2.65106,-2.508317 z M 12.959361,73.091146 l -2.508316,-2.579687 2.579687,2.508316 c 2.395987,2.329698 2.700045,2.651058 2.508316,2.651058 -0.03925,0 -1.200113,-1.160859 -2.579687,-2.579687 z m 126.211469,0.06615 c 1.3767,-1.382448 2.56262,-2.513542 2.63538,-2.513542 0.0728,0 -0.9941,1.131094 -2.3708,2.513542 -1.37669,1.382448 -2.56262,2.513541 -2.63538,2.513541 -0.0728,0 0.9941,-1.131093 2.3708,-2.513541 z M 16.529365,70.842192 14.684378,68.923963 16.602607,70.76895 c 1.055026,1.014743 1.918229,1.877946 1.918229,1.918229 0,0.194074 -0.277846,-0.06334 -1.991471,-1.844987 z m 119.069595,0.06615 c 1.01084,-1.018646 1.89742,-1.852084 1.97018,-1.852084 0.0728,0 -0.69476,0.833438 -1.7056,1.852084 -1.01084,1.018645 -1.89742,1.852083 -1.97018,1.852083 -0.0728,0 0.69475,-0.833438 1.7056,-1.852083 z m -40.571769,0 c 0,-0.363802 0.06005,-0.512631 0.133453,-0.33073 0.0734,0.181901 0.0734,0.479558 0,0.661459 -0.0734,0.181901 -0.133453,0.03307 -0.133453,-0.330729 z m -39.729273,-4.10105 c -1.084123,-1.091406 -1.911599,-1.984375 -1.838839,-1.984375 0.07276,0 1.0193,0.892969 2.103422,1.984375 1.084122,1.091406 1.911599,1.984375 1.838838,1.984375 -0.07276,0 -1.019299,-0.892969 -2.103421,-1.984375 z m 39.687498,1.911607 c 0,-0.04002 0.922734,-0.962756 2.05052,-2.050521 l 2.050521,-1.977752 -1.977752,2.05052 c -1.836894,1.904479 -2.123289,2.171242 -2.123289,1.977753 z M 57.414584,63.103126 c -0.642681,-0.654844 -1.10898,-1.190625 -1.036219,-1.190625 0.07276,0 0.658122,0.535781 1.300803,1.190625 0.64268,0.654843 1.108979,1.190625 1.036219,1.190625 -0.07276,0 -0.658122,-0.535782 -1.300803,-1.190625 z m 37.295191,0.06614 c 1.096423,-1.168185 1.333974,-1.378238 1.333974,-1.179568 0,0.04246 -0.565547,0.60801 -1.256771,1.256771 l -1.256771,1.179568 z m -58.199956,-6.746874 -4.892108,-4.960937 4.960937,4.892108 c 4.609216,4.545266 5.080452,5.029766 4.892108,5.029766 -0.03785,0 -2.270275,-2.232422 -4.960937,-4.960937 z m 79.113091,0.06615 c 2.68919,-2.692136 4.94896,-4.894792 5.02172,-4.894792 0.0728,0 -2.06795,2.202656 -4.75713,4.894792 -2.68919,2.692135 -4.94896,4.894791 -5.02172,4.894791 -0.0728,0 2.06795,-2.202656 4.75713,-4.894791 z m -76.203667,-2.976563 -3.568199,-3.63802 3.63802,3.568199 c 3.379486,3.314626 3.757893,3.707842 3.5682,3.707842 -0.0384,0 -1.675513,-1.637109 -3.638021,-3.638021 z m 73.289577,0.132292 c 3.31463,-3.379486 3.70784,-3.757893 3.70784,-3.5682 0,0.0384 -1.6371,1.675514 -3.63802,3.638021 l -3.63802,3.5682 z M 20.372919,41.671877 c 3.12616,-3.128698 5.743458,-5.688542 5.816218,-5.688542 0.07276,0 -2.425475,2.559844 -5.551634,5.688542 -3.12616,3.128697 -5.743458,5.688541 -5.816218,5.688541 -0.07276,0 2.425475,-2.559844 5.551634,-5.688541 z m 111.387271,-0.06615 -5.68623,-5.754687 5.75468,5.686234 c 3.16508,3.127428 5.75469,5.717037 5.75469,5.754687 0,0.187825 -0.53961,-0.339103 -5.82314,-5.686234 z m -32.545116,1.322916 -3.5682,-3.63802 3.638021,3.5682 c 2.000915,1.962507 3.638025,3.599616 3.638025,3.63802 0,0.189693 -0.39322,-0.188714 -3.707846,-3.5682 z M 17.462503,38.76146 c 3.854242,-3.856302 7.067245,-7.011458 7.140005,-7.011458 0.07276,0 -3.021179,3.155156 -6.875422,7.011458 -3.854242,3.856302 -7.067245,7.011458 -7.140005,7.011458 -0.07276,0 3.02118,-3.155156 6.875422,-7.011458 z m 117.208537,-0.06615 -7.00958,-7.077603 7.0776,7.009584 c 6.57706,6.513856 7.1968,7.145623 7.00958,7.145623 -0.0374,0 -3.22233,-3.184922 -7.0776,-7.077604 z m -59.269518,3.042709 c 2.575991,-2.64182 2.915145,-2.964482 2.915145,-2.773397 0,0.03898 -1.279922,1.3189 -2.844271,2.84427 l -2.844271,2.773397 z m 26.061678,-2.38125 -2.905909,-2.976563 2.976559,2.905906 c 2.76475,2.699117 3.09671,3.047219 2.90591,3.047219 -0.0389,0 -1.37832,-1.339453 -2.97656,-2.976562 z M 72.495834,38.76146 c 0.790421,-0.800364 1.496663,-1.455208 1.569423,-1.455208 0.07276,0 -0.514419,0.654844 -1.30484,1.455208 -0.790422,0.800365 -1.496663,1.455208 -1.569424,1.455208 -0.07276,0 0.514419,-0.654843 1.304841,-1.455208 z M 38.629169,30.005742 c 0,-0.134726 2.470546,-2.684647 5.490103,-5.666493 l 5.490104,-5.421538 -5.423958,5.546461 c -2.983177,3.050553 -5.453723,5.600475 -5.490104,5.666493 -0.03638,0.06602 -0.06615,0.0098 -0.06615,-0.124923 z m 30.688828,-6.391677 -4.627371,-4.696354 4.696354,4.627373 c 2.582994,2.545055 4.696353,4.658414 4.696353,4.696354 0,0.188555 -0.466172,-0.26412 -4.765336,-4.627373 z m 13.496586,0.06615 c 2.543495,-2.546615 4.684069,-4.630208 4.75683,-4.630208 0.07276,0 -1.948752,2.083593 -4.492247,4.630208 -2.543495,2.546614 -4.684069,4.630208 -4.756829,4.630208 -0.07276,0 1.948751,-2.083594 4.492246,-4.630208 z m -41.539581,-2.38125 c 3.563032,-3.56526 6.537772,-6.482291 6.610532,-6.482291 0.07276,0 -2.782917,2.917031 -6.345949,6.482291 -3.563032,3.56526 -6.537772,6.482291 -6.610532,6.482291 -0.07276,0 2.782916,-2.917031 6.345949,-6.482291 z m 29.895232,-1.653646 -4.892109,-4.960937 4.960938,4.892109 4.960937,4.89211 4.960937,-4.89211 4.960938,-4.892109 -4.892109,4.960937 c -2.690662,2.728516 -4.954055,4.960938 -5.029766,4.960938 -0.07571,0 -2.339104,-2.232422 -5.029766,-4.960938 z"
         id="path192" /><path
         style="fill:#000000;stroke-width:0.264583"
         d="m 38.825767,134.73726 -7.075765,-7.07941 v -3.76172 -3.76171 l -0.859896,-0.43558 c -1.218397,-0.61717 -1.76873,-1.15376 -2.348635,-2.28999 l -0.50639,-0.99219 h -2.708759 -2.708759 l -6.017113,-6.02138 -6.017113,-6.02138 v -9.131238 -9.131239 l 2.468629,-2.458365 2.468629,-2.458365 -0.366503,-1.439013 c -0.312282,-1.226124 -0.312282,-1.651902 0,-2.878027 L 15.520595,75.43864 13.051966,72.980275 10.583337,70.52191 V 58.211724 45.901535 l 7.079408,-7.075768 7.079408,-7.075765 h 1.639428 c 1.614574,0 1.646111,-0.01409 2.080322,-0.929117 0.872373,-1.838389 2.9671,-3.071003 5.343161,-3.144113 l 1.39561,-0.04294 6.412587,-6.40858 6.412584,-6.40858 h 9.123595 9.123595 l 4.963482,4.958326 4.963483,4.958325 4.963483,-4.958325 4.963482,-4.958326 h 9.033494 9.033491 l 0.51226,-0.992188 c 1.15015,-2.227694 4.06735,-3.512882 6.69475,-2.949405 5.09176,1.091989 6.58252,7.827408 2.43295,10.992391 -2.91647,2.224461 -7.47768,1.340337 -9.0571,-1.755585 l -0.54173,-1.06188 h -8.397981 -8.397978 l -4.561228,4.56682 -4.561226,4.56682 v 5.293421 5.293421 l -2.848592,2.839757 -2.848591,2.83976 h -2.702282 -2.70228 l -0.541731,1.061878 c -1.579422,3.095924 -6.140633,3.980048 -9.057097,1.755587 -4.149572,-3.164985 -2.658819,-9.900403 2.432949,-10.992392 2.628524,-0.563718 5.505505,0.686991 6.624148,2.879715 l 0.541731,1.061878 h 2.05418 2.054183 l 1.380024,-1.397383 1.380024,-1.397381 V 32.79718 28.172457 L 69.516514,23.61123 64.949692,19.050003 h -7.804869 -7.804872 l -5.387043,5.391858 -5.387046,5.391857 0.551669,0.759705 c 1.892522,2.606193 0.80632,7.094533 -2.072317,8.563102 l -1.061879,0.541732 v 5.216596 5.216596 l 3.502054,3.509275 c 3.220932,3.227578 3.57991,3.509277 4.471977,3.509277 0.853342,0 1.031494,-0.119256 1.482185,-0.992188 0.69722,-1.350433 2.409256,-2.602642 4.035084,-2.951318 4.529981,-0.971508 8.484292,3.114283 7.324404,7.567935 l -0.358222,1.375473 1.142796,1.121569 c 0.628537,0.616863 1.190186,1.069462 1.248109,1.005777 0.05792,-0.06369 0.345654,-0.59204 0.639397,-1.174123 1.484439,-2.941561 4.826169,-6.252599 7.98685,-7.913486 5.188397,-2.726428 11.958237,-2.806729 17.116138,-0.203028 2.111883,1.066075 4.601202,2.977372 5.903216,4.532487 0.973712,1.162991 2.725082,3.84498 3.008749,4.607496 0.06137,0.16497 0.641707,-0.211646 1.292254,-0.838624 l 1.180857,-1.138068 -0.358222,-1.375473 c -1.15642,-4.440333 2.794561,-8.539413 7.299629,-7.573248 1.68103,0.360516 3.29698,1.529937 3.98927,2.88694 0.48663,0.953873 0.64247,1.061879 1.53221,1.061879 0.91845,0 1.24519,-0.25523 4.49254,-3.509277 l 3.50205,-3.509275 v -1.782392 -1.782389 h -6.6844 -6.68441 l -3.520946,-3.528213 -3.520953,-3.528216 -1.370164,0.356846 c -4.448299,1.158513 -8.533502,-2.798752 -7.562627,-7.325784 0.842838,-3.930026 5.305803,-6.036698 8.885764,-4.194387 2.575136,1.325212 3.896986,4.249347 3.174661,7.022837 l -0.357008,1.370793 2.805093,2.796394 2.80509,2.796397 h 6.01495 6.01495 v -1.31754 c 0,-1.271487 -0.0371,-1.336474 -1.06187,-1.85927 -3.82615,-1.951955 -4.01475,-8.008106 -0.32493,-10.434122 2.9893,-1.96543 7.27677,-1.006979 8.79333,1.965719 l 0.54173,1.06188 h 1.64646 1.64647 l 7.07941,7.075765 7.0794,7.075768 V 58.211724 70.52191 l -2.46863,2.458365 -2.46863,2.458365 0.36651,1.439013 c 0.31228,1.226125 0.31228,1.651903 0,2.878027 l -0.36651,1.439013 2.46863,2.458365 2.46863,2.458365 v 9.135507 9.13551 l -6.02138,6.01711 -6.02138,6.01711 h -2.70307 -2.70308 l -0.43557,0.8599 c -0.61717,1.2184 -1.15377,1.76873 -2.28999,2.34864 l -0.99219,0.50639 v 3.76677 3.76677 l -7.07941,7.07577 -7.07941,7.07576 H 97.366973 88.242764 L 82.221382,135.79955 76.2,129.78244 l -6.021382,6.01711 -6.021382,6.01711 h -9.127852 -9.127849 z m 29.632914,-2.77402 5.624652,-5.62009 v -5.17418 -5.17419 l -1.380643,-0.91354 c -2.560764,-1.69439 -3.43571,-4.94868 -2.082212,-7.74462 0.562202,-1.16136 1.982313,-2.53716 2.999835,-2.90623 0.393723,-0.14281 0.46302,-0.52049 0.46302,-2.52352 v -2.355566 l -2.887977,-0.118989 c -3.412286,-0.140591 -4.919043,-0.748083 -6.279488,-2.531742 -1.09978,-1.44191 -1.415867,-3.054196 -1.415867,-7.222008 v -3.428722 l -1.557179,-1.854589 c -3.226689,-3.842962 -4.622988,-7.695985 -4.599884,-12.69317 l 0.01408,-3.042709 -1.840011,-1.875133 -1.84001,-1.875137 -1.372343,0.357413 c -2.639862,0.687519 -5.639956,-0.558221 -6.794495,-2.821305 L 44.968417,61.383334 H 43.322695 41.676971 L 36.713489,56.425008 31.750006,51.466682 V 45.583887 39.701091 L 30.89011,39.265515 c -1.218397,-0.617172 -1.76873,-1.153763 -2.348635,-2.289992 -0.448136,-0.878049 -0.619651,-0.992188 -1.490944,-0.992188 -0.928917,0 -1.302402,0.31759 -6.609206,5.620089 l -5.624651,5.620088 v 10.975874 10.975877 l 1.736165,1.74957 1.736166,1.749573 1.372688,-0.3575 c 4.532098,-1.180327 8.690172,2.975666 7.5066,7.502843 l -0.358375,1.370792 2.805094,2.796395 2.805094,2.796397 h 2.02026 2.02026 l 0.512263,-0.992188 c 1.150146,-2.227693 4.067341,-3.51288 6.694741,-2.949405 5.091768,1.091988 6.582521,7.827406 2.43295,10.992392 -2.916465,2.22446 -7.477675,1.340336 -9.057098,-1.755587 l -0.541731,-1.061879 h -2.710278 -2.710277 l -3.519408,-3.526668 -3.519408,-3.526666 -1.437853,0.366207 c -1.22503,0.312005 -1.651052,0.31191 -2.878235,-5.29e-4 l -1.440381,-0.366852 -1.734618,1.748014 -1.734619,1.748012 v 7.79581 7.795806 l 4.561227,4.56683 4.561226,4.5667 h 2.027417 2.027417 l 0.512261,-0.99219 c 1.559426,-3.02042 5.862819,-4.0086 8.86392,-2.03541 3.689818,2.42602 3.501226,8.48217 -0.324924,10.43412 l -1.061879,0.54174 v 3.10122 3.10122 l 5.620089,5.62465 5.620088,5.62465 h 7.805258 7.805261 z m -19.321988,-3.21698 c -3.746735,-1.02498 -5.638025,-5.34324 -3.856445,-8.80519 1.325626,-2.57594 4.249261,-3.897 7.024732,-3.17417 l 1.37269,0.3575 1.736164,-1.74957 c 1.498307,-1.50987 1.736167,-1.88115 1.736167,-2.70998 0,-0.85257 -0.128334,-1.03561 -1.143048,-1.63027 -4.08691,-2.39509 -3.83881,-8.52207 0.434123,-10.721 3.575696,-1.84012 8.042968,0.26455 8.883851,4.18546 0.563475,2.6274 -0.721712,5.5446 -2.949405,6.69474 -0.984018,0.50804 -0.992188,0.52571 -0.992188,2.1452 v 1.63293 l -2.470182,2.45991 -2.470181,2.45991 0.357145,1.37132 c 1.1874,4.55923 -3.088648,8.73472 -7.663423,7.48321 z m 3.130542,-4.51236 c 1.312386,-1.31239 0.382434,-3.5839 -1.467234,-3.5839 -1.087728,0 -2.116666,1.02894 -2.116666,2.11666 0,1.08773 1.028938,2.11667 2.116666,2.11667 0.515506,0 1.057863,-0.24006 1.467234,-0.64943 z m 8.466666,-16.93333 c 1.312386,-1.31239 0.382434,-3.5839 -1.467234,-3.5839 -1.087728,0 -2.116666,1.02893 -2.116666,2.11666 0,1.08773 1.028938,2.11667 2.116666,2.11667 0.515507,0 1.057863,-0.24006 1.467234,-0.64943 z m 50.058109,24.66267 5.62465,-5.62009 v -3.10578 -3.10578 l -1.06187,-0.54174 c -3.82615,-1.95195 -4.01475,-8.0081 -0.32493,-10.43412 2.9893,-1.96543 7.27677,-1.00698 8.79333,1.96572 l 0.54173,1.06188 h 2.04238 2.04239 l 4.56682,-4.56122 4.56682,-4.56123 v -7.801406 -7.801403 l -1.73462,-1.748012 -1.73462,-1.748015 -1.44038,0.366853 c -1.22718,0.312552 -1.6532,0.312647 -2.87823,5.29e-4 l -1.43786,-0.366207 -3.5194,3.526665 -3.51941,3.526668 h -2.71028 -2.71028 l -0.54173,1.061879 c -1.57942,3.095924 -6.14063,3.980047 -9.0571,1.755587 -4.14957,-3.164985 -2.65881,-9.900404 2.43295,-10.992392 2.62853,-0.563719 5.50551,0.686991 6.62415,2.879714 l 0.54173,1.061879 h 2.04082 2.04083 l 2.80509,-2.796397 2.8051,-2.796394 -0.35838,-1.370793 c -1.18357,-4.527177 2.9745,-8.68317 7.5066,-7.502842 l 1.37269,0.357499 1.73616,-1.749573 1.73617,-1.74957 V 58.203836 47.232524 l -5.62009,-5.62465 c -5.31356,-5.317765 -5.67403,-5.624539 -6.6092,-5.624539 -0.87657,0 -1.04674,0.112901 -1.49551,0.992188 -0.5799,1.136229 -1.13024,1.67282 -2.34864,2.289992 L 120.65,39.701091 v 5.877639 5.877639 l -4.95833,4.963483 -4.95832,4.963482 h -1.65088 -1.65088 l -0.54173,1.061879 c -1.15454,2.263084 -4.15464,3.508824 -6.7945,2.821305 l -1.372342,-0.357413 -1.851896,1.875137 -1.851893,1.875133 0.02421,3.042709 c 0.03972,4.990364 -1.351375,8.840432 -4.586272,12.69317 l -1.557178,1.854589 v 3.428722 c 0,4.167812 -0.316087,5.780098 -1.415868,7.222008 -1.360445,1.783659 -2.867202,2.391151 -6.279488,2.531742 l -2.887966,0.118989 v 2.321326 2.32132 l 0.992187,0.51226 c 1.347031,0.69547 2.602706,2.40956 2.949406,4.02616 0.563718,2.62853 -0.686991,5.50551 -2.879715,6.62415 l -1.061878,0.54173 v 5.21789 5.21789 l 5.620088,5.62465 5.620088,5.62465 h 7.805259 7.805258 z m -19.293657,-3.20978 c -5.209235,-1.42742 -6.234377,-8.48661 -1.624735,-11.18804 l 1.143048,-0.66987 V 114.3 111.70445 l -1.143048,-0.66987 c -4.08691,-2.39509 -3.83881,-8.52207 0.434123,-10.721 3.575696,-1.84012 8.042968,0.26455 8.883851,4.18546 0.563475,2.6274 -0.721712,5.5446 -2.949405,6.69474 l -0.992188,0.51226 v 2.59396 2.59395 l 0.992188,0.51226 c 1.34703,0.69547 2.602706,2.40956 2.949405,4.02616 0.974308,4.54303 -3.23011,8.54406 -7.693239,7.32109 z m 3.102213,-4.51956 c 0.409374,-0.40937 0.649433,-0.95173 0.649433,-1.46724 0,-0.5155 -0.240059,-1.05786 -0.649433,-1.46723 -0.409371,-0.40937 -0.951727,-0.64943 -1.467234,-0.64943 -0.515506,0 -1.057862,0.24006 -1.467233,0.64943 -0.409374,0.40937 -0.649433,0.95173 -0.649433,1.46723 0,0.51551 0.240059,1.05787 0.649433,1.46724 0.409371,0.40937 0.951727,0.64943 1.467233,0.64943 0.515507,0 1.057863,-0.24006 1.467234,-0.64943 z m 0,-16.93333 c 0.409374,-0.40938 0.649433,-0.95173 0.649433,-1.46724 0,-0.5155 -0.240059,-1.05786 -0.649433,-1.46723 -0.409371,-0.40938 -0.951727,-0.64943 -1.467234,-0.64943 -0.515506,0 -1.057862,0.24005 -1.467233,0.64943 -0.409374,0.40937 -0.649433,0.95173 -0.649433,1.46723 0,0.51551 0.240059,1.05786 0.649433,1.46724 0.409371,0.40937 0.951727,0.64943 1.467233,0.64943 0.515507,0 1.057863,-0.24006 1.467234,-0.64943 z m -59.266664,8.46666 c 1.312387,-1.31238 0.382434,-3.5839 -1.467233,-3.5839 -1.087728,0 -2.116667,1.02894 -2.116667,2.11667 0,1.08773 1.028939,2.11666 2.116667,2.11666 0.515507,0 1.057861,-0.24005 1.467233,-0.64943 z m 84.666658,0 c 0.40938,-0.40937 0.64944,-0.95173 0.64944,-1.46723 0,-0.51551 -0.24006,-1.05786 -0.64944,-1.46724 -0.40937,-0.40937 -0.95172,-0.64943 -1.46723,-0.64943 -0.5155,0 -1.05786,0.24006 -1.46723,0.64943 -0.40938,0.40938 -0.64944,0.95173 -0.64944,1.46724 0,0.5155 0.24006,1.05786 0.64944,1.46723 0.40937,0.40938 0.95173,0.64943 1.46723,0.64943 0.51551,0 1.05786,-0.24005 1.46723,-0.64943 z M 77.667234,111.5339 c 0.409373,-0.40937 0.649433,-0.95173 0.649433,-1.46723 0,-0.51551 -0.24006,-1.05787 -0.649433,-1.46724 -1.312384,-1.31238 -3.583901,-0.38243 -3.583901,1.46724 0,1.08772 1.028939,2.11666 2.116667,2.11666 0.515506,0 1.057862,-0.24006 1.467234,-0.64943 z m 6.349999,-16.933334 c 0.625594,-0.625594 0.649433,-0.780981 0.649433,-4.233333 v -3.5839 H 76.2 67.733334 v 3.5839 c 0,3.452352 0.02384,3.607739 0.649433,4.233333 l 0.64943,0.649433 H 76.2 83.367803 Z M 43.800569,90.367233 c 1.312386,-1.312384 0.382434,-3.5839 -1.467234,-3.5839 -1.087728,0 -2.116667,1.028938 -2.116667,2.116666 0,1.087729 1.028939,2.116667 2.116667,2.116667 0.515506,0 1.057862,-0.240059 1.467234,-0.649433 z m 67.733331,0 c 0.40937,-0.409371 0.64943,-0.951727 0.64943,-1.467234 0,-0.515506 -0.24006,-1.057862 -0.64943,-1.467233 -0.40937,-0.409374 -0.95173,-0.649433 -1.46723,-0.649433 -0.51551,0 -1.05787,0.240059 -1.46724,0.649433 -0.40937,0.409371 -0.64943,0.951727 -0.64943,1.467233 0,0.515507 0.24006,1.057863 0.64943,1.467234 0.40937,0.409374 0.95173,0.649433 1.46724,0.649433 0.5155,0 1.05786,-0.240059 1.46723,-0.649433 z M 74.083333,80.19469 v -2.355311 l -0.992187,-0.512262 c -3.144676,-1.623578 -4.059512,-6.198412 -1.825278,-9.127691 3.164985,-4.149571 9.900403,-2.658819 10.992392,2.43295 0.563475,2.6274 -0.721712,5.544595 -2.949406,6.694741 l -0.992187,0.512262 V 80.19469 82.55 h 4.227181 4.227179 l 1.058995,-1.339726 c 2.16141,-2.734392 3.189157,-5.786821 3.183503,-9.455067 -0.0062,-3.997341 -1.43819,-7.377541 -4.338026,-10.239581 C 83.608441,58.488544 80.396556,57.150001 76.2,57.150001 c -4.208785,0 -7.435365,1.347213 -10.452409,4.364257 -3.035858,3.035855 -4.364257,6.240653 -4.364257,10.528876 0,3.493323 1.107747,6.584153 3.362629,9.382387 L 65.652095,82.55 h 4.215619 4.215619 z M 22.633904,79.7839 C 23.946288,78.471517 23.016338,76.2 21.166669,76.2 c -1.087728,0 -2.116666,1.028938 -2.116666,2.116667 0,1.087728 1.028938,2.116666 2.116666,2.116666 0.515507,0 1.057862,-0.240059 1.467235,-0.649433 z m 110.066656,0 c 0.40938,-0.409371 0.64944,-0.951727 0.64944,-1.467233 0,-0.515507 -0.24006,-1.057863 -0.64944,-1.467234 C 132.29119,76.440059 131.74884,76.2 131.23333,76.2 c -0.51551,0 -1.05786,0.240059 -1.46723,0.649433 -0.40938,0.409371 -0.64944,0.951727 -0.64944,1.467234 0,0.515506 0.24006,1.057862 0.64944,1.467233 0.40937,0.409374 0.95172,0.649433 1.46723,0.649433 0.51551,0 1.05786,-0.240059 1.46723,-0.649433 z M 77.704302,73.508047 C 79.068774,72.226191 78.115697,69.85 76.237079,69.85 c -1.264775,0 -2.153746,0.858364 -2.153746,2.079588 0,1.923664 2.22232,2.89242 3.620969,1.578459 z M 52.267235,60.733901 c 1.312386,-1.312383 0.382434,-3.5839 -1.467234,-3.5839 -0.515506,0 -1.057862,0.240059 -1.467233,0.649433 -0.409374,0.409371 -0.649433,0.951727 -0.649433,1.467233 0,0.515507 0.240059,1.057863 0.649433,1.467234 0.409371,0.409374 0.951727,0.649433 1.467233,0.649433 0.515506,0 1.057863,-0.240059 1.467234,-0.649433 z m 50.799995,0 c 1.31239,-1.312383 0.38244,-3.5839 -1.46723,-3.5839 -1.08773,0 -2.116668,1.028938 -2.116668,2.116666 0,1.087729 1.028938,2.116667 2.116668,2.116667 0.5155,0 1.05786,-0.240059 1.46723,-0.649433 z M 62.850568,43.800569 c 0.409374,-0.409372 0.649433,-0.951728 0.649433,-1.467234 0,-0.515506 -0.240059,-1.057862 -0.649433,-1.467234 -0.409372,-0.409373 -0.951728,-0.649433 -1.467234,-0.649433 -0.515506,0 -1.057862,0.24006 -1.467234,0.649433 -0.409373,0.409372 -0.649433,0.951728 -0.649433,1.467234 0,0.515506 0.24006,1.057862 0.649433,1.467234 0.409372,0.409373 0.951728,0.649433 1.467234,0.649433 0.515506,0 1.057862,-0.24006 1.467234,-0.649433 z M 35.333902,35.333902 c 0.409374,-0.409372 0.649433,-0.951726 0.649433,-1.467233 0,-0.515507 -0.240059,-1.057862 -0.649433,-1.467235 -0.409372,-0.409373 -0.951726,-0.649432 -1.467233,-0.649432 -0.515507,0 -1.057862,0.240059 -1.467235,0.649432 -0.409373,0.409373 -0.649432,0.951728 -0.649432,1.467235 0,0.515507 0.240059,1.057861 0.649432,1.467233 0.409373,0.409374 0.951728,0.649433 1.467235,0.649433 0.515507,0 1.057861,-0.240059 1.467233,-0.649433 z m 59.266664,0 c 1.312386,-1.312383 0.382434,-3.5839 -1.467234,-3.5839 -1.087728,0 -2.116666,1.028939 -2.116666,2.116667 0,1.087728 1.028938,2.116666 2.116666,2.116666 0.515507,0 1.057863,-0.240059 1.467234,-0.649433 z m 25.399994,0 c 1.31239,-1.312383 0.38244,-3.5839 -1.46723,-3.5839 -1.08773,0 -2.11667,1.028939 -2.11667,2.116667 0,1.087728 1.02894,2.116666 2.11667,2.116666 0.51551,0 1.05786,-0.240059 1.46723,-0.649433 z M 111.5339,18.400571 c 1.31238,-1.312384 0.38243,-3.583901 -1.46723,-3.583901 -1.08773,0 -2.11667,1.028938 -2.11667,2.116666 0,1.087728 1.02894,2.116667 2.11667,2.116667 0.5155,0 1.05786,-0.240059 1.46723,-0.649432 z"
         id="path190" /></g></g></svg>
